SplineFontDB: 3.0
FontName: NimboFourteen
FullName: Nimbo Fourteen
FamilyName: NimboFourteen
Weight: Regular
Copyright: Created by trashman with FontForge 2.0 (http://fontforge.sf.net)
UComments: "Scan 6400, cut to 1200, scale 97%" 
Version: 0.1
ItalicAngle: 0
UnderlinePosition: -100
UnderlineWidth: 50
Ascent: 660
Descent: 340
LayerCount: 3
Layer: 0 0 "Back"  1
Layer: 1 0 "Fore"  0
Layer: 2 0 "backup"  0
NeedsXUIDChange: 1
XUID: [1021 658 797806517 11461781]
OS2Version: 0
OS2_WeightWidthSlopeOnly: 0
OS2_UseTypoMetrics: 1
CreationTime: 1288472788
ModificationTime: 1288650552
OS2TypoAscent: 0
OS2TypoAOffset: 1
OS2TypoDescent: 0
OS2TypoDOffset: 1
OS2TypoLinegap: 0
OS2WinAscent: 0
OS2WinAOffset: 1
OS2WinDescent: 0
OS2WinDOffset: 1
HheadAscent: 0
HheadAOffset: 1
HheadDescent: 0
HheadDOffset: 1
OS2Vendor: 'PfEd'
MarkAttachClasses: 1
DEI: 91125
Encoding: UnicodeBmp
UnicodeInterp: none
NameList: Adobe Glyph List
DisplaySize: -48
AntiAlias: 1
FitToEm: 1
WinInfo: 84 12 4
BeginPrivate: 9
BlueValues 7 [-12 0]
OtherBlues 2 []
BlueScale 8 0.039625
BlueShift 1 7
BlueFuzz 1 0
StdHW 4 [36]
StemSnapH 28 [20 25 30 36 44 48 63 79 86]
StdVW 4 [66]
StemSnapV 28 [65 66 68 71 72 75 78 80 84]
EndPrivate
BeginChars: 65537 64

StartChar: a
Encoding: 97 97 0
Width: 364
VWidth: 0
Flags: W
HStem: -11 42<78.5 177.481> -10 48<253 318.991> 318 39<119.789 202.129>
VStem: 20 74<39.9574 110.764> 32 80<250.085 298.683> 215 61<41.8971 156.999 174.197 308.246>
LayerCount: 3
Fore
SplineSet
266 -10 m 0x6c
 240 -10 224 8 219 26 c 0
 217 35 217 36 214 36 c 0
 211 36 199 25 191 19 c 0
 175 6 145 -11 101 -11 c 0
 56 -11 20 21 20 62 c 0xb4
 20 118 85 142 141 159 c 0
 164 166 185 172 200 176 c 0
 211 179 215 184 215 195 c 2
 215 235 l 2
 215 272 213 318 162 318 c 0
 138 318 114 311 112 291 c 0
 109 270 94 238 56 238 c 0
 40 238 32 249 32 262 c 0
 32 279 48 296 68 310 c 0
 99 332 160 357 187 357 c 0
 239 357 276 338 276 248 c 2
 276 85 l 2
 276 54 278 38 295 38 c 0
 309 38 314 52 321 52 c 0
 326 52 330 47 330 38 c 0
 330 9 296 -10 266 -10 c 0x6c
154 31 m 0
 184 31 215 48 215 79 c 2
 215 145 l 2
 215 155 212 157 209 157 c 0
 206 157 188 152 173 148 c 0
 139 138 94 121 94 83 c 0
 94 45 121 31 154 31 c 0
EndSplineSet
Layer: 2
SplineSet
154 31 m 4
 184 31 215 48 215 79 c 6
 215 145 l 6
 215 153.58215707 213.173882149 156.685960588 209.046736441 156.685960588 c 4
 207.883999615 156.685960588 206.538627319 156.439607805 205 156 c 4
 182 150 94 135 94 83 c 4xb4
 94 45 121 31 154 31 c 4
266 -10 m 0x6c
 240 -10 224 8 219 26 c 0
 217 35 217 36 214 36 c 0x6c
 211 36 199 25 191 19 c 0
 175 6 145 -11 101 -11 c 0
 56 -11 20 21 20 62 c 0xb4
 20 118 85 142 141 159 c 0
 164 166 185 172 200 176 c 0
 211 179 215 184 215 195 c 2
 215 235 l 2
 215 272 213 318 162 318 c 0
 138 318 114 311 112 291 c 0
 109 270 94 238 56 238 c 0
 40 238 32 249 32 262 c 0
 32 279 48 296 68 310 c 0
 99 332 160 357 187 357 c 0
 239 357 276 338 276 248 c 2
 276 85 l 2
 276 54 278 38 295 38 c 0
 301 38 307 40 315 49 c 0
 316.726713297 50.7267132973 318.701888162 51.5424008468 320.63951 51.5424008468 c 0
 325.434755189 51.5424008468 330 46.5465734054 330 38 c 0
 330 9 296 -10 266 -10 c 0x6c
EndSplineSet
EndChar

StartChar: b
Encoding: 98 98 1
Width: 429
VWidth: 0
Flags: W
HStem: -12 27<155.307 262.217> -4 21G<57 67.5> 319 33<162.632 260.349>
VStem: 53 61<43.5 297.287 306.004 575.217> 336 63<81.4316 250.746>
LayerCount: 3
Fore
SplineSet
235 352 m 0x78
 310 352 399 289 399 172 c 0
 399 99 357 -12 211 -12 c 0xb8
 135 -12 110 12 91 12 c 0
 78 12 73 -4 62 -4 c 0
 52 -4 53 7 53 19 c 0
 53 97 58 390 58 522 c 0
 58 554 58 576 44 584 c 2
 22 597 l 2
 16 600 14 603 14 606 c 0
 14 610 19 614 28 617 c 2
 94 640 l 2
 101 642 109 645 114 645 c 0
 119 645 122 642 122 633 c 0
 122 609 114 419 114 349 c 2
 114 324 l 2
 114 311 114 306 117 306 c 0
 119 306 123 310 129 315 c 0
 152 334 190 352 235 352 c 0x78
214 15 m 0
 286 15 336 88 336 167 c 0
 336 251 280 319 199 319 c 0
 158 319 114 286 114 274 c 2
 114 117 l 2
 114 57 138 15 214 15 c 0
EndSplineSet
EndChar

StartChar: c
Encoding: 99 99 2
Width: 352
VWidth: 0
Flags: W
LayerCount: 3
Fore
SplineSet
223 354 m 0
 259 354 326 348 326 312 c 0
 326 289 309 283 297 283 c 0
 271 283 263 301 248 309 c 0
 236 315 228 320 204 320 c 0
 126 320 82 253 82 187 c 0
 82 98 137 29 221 29 c 0
 249 29 277 40 299 58 c 0
 305 63 309 66 314 66 c 0
 320 66 322 61 322 57 c 0
 322 46 317 36 308 27 c 0
 280 -1 239 -13 197 -13 c 0
 92 -13 23 49 23 162 c 0
 23 276 105 354 223 354 c 0
EndSplineSet
EndChar

StartChar: d
Encoding: 100 100 3
Width: 445
VWidth: 0
Flags: W
HStem: -8 36<146.676 252.181> 20 30<376.553 415.987> 317 26<170.364 268.193>
VStem: 33 64<75.2491 239.542> 307 61<38.0044 38.637 52.171 290.158 326.002 581.736>
LayerCount: 3
Fore
SplineSet
183 -8 m 0xb8
 81 -8 33 50 33 149 c 0
 33 263 120 343 228 343 c 0
 252 343 274 338 290 333 c 0
 299 330 305 326 308 326 c 0
 311 326 312 329 312 337 c 0
 312 349 312 475 311 544 c 0
 311 569 306 574 280 584 c 0
 261 591 269 600 276 604 c 0
 292 612 296 614 314 624 c 0
 326 631 352 649 358 649 c 0
 367 649 368 640 368 633 c 2
 368 50 l 2
 368 44 369 38 375 38 c 0
 380 38 407 50 410 50 c 0
 414 50 416 42 416 34 c 0
 416 29 416 22 412 20 c 0x78
 386 9 348 -7 329 -14 c 0
 324 -16 319 -18 316 -18 c 0
 308 -18 308 -12 308 4 c 2
 308 38 l 2
 308 50 307 50 298 42 c 0
 279 25 239 -8 183 -8 c 0xb8
216 317 m 0
 153 317 97 246 97 173 c 0
 97 98 124 28 204 28 c 0xb8
 258 28 307 56 307 86 c 2
 307 220 l 2
 307 290 268 317 216 317 c 0
EndSplineSet
EndChar

StartChar: e
Encoding: 101 101 4
Width: 376
VWidth: 0
Flags: W
HStem: -12 44<146.404 280.769> 231 18<105.006 248.873> 331 23<159.923 243.389>
VStem: 27 60<96.5722 230.139> 265 61<238.5 311.99>
LayerCount: 3
Fore
SplineSet
205 354 m 0
 293 354 326 299 326 243 c 0
 326 234 325 229 317 229 c 2
 103 231 l 2
 91 231 87 217 87 194 c 0
 87 113 123 32 216 32 c 0
 258 32 297 49 321 73 c 0
 325 77 334 77 334 67 c 0
 334 36 269 -12 195 -12 c 0
 87 -12 27 63 27 168 c 0
 27 275 97 354 205 354 c 0
124 249 m 2
 191 249 l 2
 223 249 265 250 265 286 c 0
 265 308 240 331 208 331 c 0
 139 331 105 275 105 258 c 0
 105 249 113 249 124 249 c 2
EndSplineSet
EndChar

StartChar: f
Encoding: 102 102 5
Width: 281
VWidth: 0
Flags: W
HStem: -2 31<141.375 241.954> 306 26<29.2994 44> 314 32<136.099 255.999> 604 47<152.173 253.555>
VStem: 75 61<31.9004 305.749 346.03 558.935>
LayerCount: 3
Fore
SplineSet
275 617 m 0xd8
 275 599 257 587 236 587 c 0
 207 587 203 604 184 604 c 0
 175 604 167 600 159 592 c 0
 140 573 134 535 134 493 c 2
 134 361 l 2
 134 346 134 346 148 346 c 2
 247 346 l 2
 255 346 256 342 256 330 c 0
 256 319 255 314 247 314 c 2
 153 314 l 2xb8
 138 314 136 314 136 301 c 2
 136 74 l 2
 136 31 151 29 196 29 c 2
 219 29 l 2
 235 29 242 25 242 12 c 0
 242 3 236 -2 210 -2 c 0
 179 -2 146 0 109 0 c 0
 85 0 58 -2 39 -2 c 0
 23 -2 23 2 23 14 c 0
 23 35 75 18 75 49 c 2
 75 289 l 2
 75 305 70 306 56 306 c 2
 45 306 l 2
 34 306 29 309 29 316 c 0
 29 324 34 328 44 332 c 2
 64 341 l 2
 75 346 75 344 75 354 c 2
 75 431 l 2
 75 576 136 651 221 651 c 0
 244 651 275 645 275 617 c 0xd8
EndSplineSet
EndChar

StartChar: g
Encoding: 103 103 6
Width: 472
VWidth: 0
Flags: W
LayerCount: 3
Fore
SplineSet
39 -198 m 0xea60
 39 -153 79 -115 113 -81 c 0
 122 -72 127 -67 111 -63 c 0
 91 -58 50 -35 50 4 c 0xe960
 50 32 83 43 110 62 c 0
 136 81 150 87 150 93 c 0
 150 96 145 98 136 104 c 0
 100 129 58 155 58 227 c 0
 58 293 131 358 204 358 c 0xe4e0
 294 358 312 330 326 330 c 0xe8e0
 335 330 424 335 429 335 c 0
 446 335 447 333 447 317 c 2
 447 299 l 2
 447 286 439 283 432 283 c 0xf0e0
 425 283 350 295 346 295 c 0
 345 295 345 294 345 293 c 0
 345 287 356 265 356 229 c 0
 356 163 314 123 275 102 c 0
 250 88 216 87 203 87 c 0
 195 87 188 88 183 88 c 0
 175 88 170 86 162 81 c 0
 133 60 111 41 111 28 c 0xe960
 111 0 156 -4 180 -4 c 2
 313 -4 l 2
 382 -4 419 -41 419 -95 c 0
 419 -225 287 -292 191 -292 c 0
 119 -292 39 -271 39 -198 c 0xea60
360 -124 m 0
 360 -79 329 -65 278 -65 c 0
 236 -65 185 -66 163 -66 c 0
 156 -66 151 -65 143 -72 c 0
 122 -90 96 -136 96 -170 c 0xe260
 96 -221 161 -257 222 -257 c 0
 291 -257 360 -204 360 -124 c 0
204 108 m 0
 276 108 296 159 296 231 c 0
 296 283 262 327 213 327 c 0
 150 327 117 270 117 214 c 0xe4e0
 117 163 148 108 204 108 c 0
EndSplineSet
EndChar

StartChar: h
Encoding: 104 104 7
Width: 194
VWidth: 0
Flags: W
LayerCount: 3
Fore
SplineSet
47 262 m 0
 47 290 69 312 97 312 c 0
 125 312 147 290 147 262 c 0
 147 234 125 212 97 212 c 0
 69 212 47 234 47 262 c 0
EndSplineSet
EndChar

StartChar: i
Encoding: 105 105 8
Width: 225
VWidth: 0
Flags: W
LayerCount: 3
Fore
SplineSet
46 318 m 2xd0
 105 356 l 2
 113 361 122 368 128 368 c 0
 132 368 135 364 135 354 c 2
 135 67 l 2
 135 39 143 31 161 24 c 0
 182 16 185 18 185 8 c 0
 185 2 179 -2 171 -2 c 0
 149 -2 133 0 107 0 c 0
 90 0 63 -2 58 -2 c 0
 46 -2 33 -2 33 9 c 0
 33 20 45 21 58 27 c 0
 74 34 74 43 74 78 c 2
 74 274 l 2
 74 283 71 287 64 290 c 2
 42 298 l 2
 35 300 33 303 33 306 c 0
 33 310 39 314 46 318 c 2xd0
71 598 m 0xe0
 71 617 88 634 107 634 c 0
 126 634 143 617 143 598 c 0
 143 579 126 563 107 563 c 0
 88 563 71 579 71 598 c 0xe0
EndSplineSet
EndChar

StartChar: j
Encoding: 106 106 9
Width: 223
VWidth: 0
Flags: W
LayerCount: 3
Fore
SplineSet
71 598 m 0xe0
 71 617 88 634 107 634 c 0
 126 634 143 617 143 598 c 0
 143 579 126 563 107 563 c 0
 88 563 71 579 71 598 c 0xe0
73 13 m 2xd0
 73 264 l 2
 73 290 61 299 54 303 c 0
 47 307 35 311 35 316 c 0
 35 320 41 323 49 327 c 2
 114 360 l 2
 117 362 124 366 129 366 c 0
 132 366 135 364 135 359 c 0
 135 341 134 237 134 165 c 2
 134 -31 l 2
 134 -94 112 -122 85 -160 c 0
 56 -200 40 -221 14 -221 c 0
 4 -221 2 -207 2 -193 c 0
 2 -181 4 -172 13 -172 c 2
 36 -172 l 2
 41 -172 73 -130 73 13 c 2xd0
EndSplineSet
EndChar

StartChar: k
Encoding: 107 107 10
Width: 194
VWidth: 0
Flags: W
LayerCount: 3
Fore
SplineSet
47 262 m 0
 47 290 69 312 97 312 c 0
 125 312 147 290 147 262 c 0
 147 234 125 212 97 212 c 0
 69 212 47 234 47 262 c 0
EndSplineSet
EndChar

StartChar: l
Encoding: 108 108 11
Width: 194
VWidth: 0
Flags: W
LayerCount: 3
Fore
SplineSet
47 262 m 0
 47 290 69 312 97 312 c 0
 125 312 147 290 147 262 c 0
 147 234 125 212 97 212 c 0
 69 212 47 234 47 262 c 0
EndSplineSet
EndChar

StartChar: m
Encoding: 109 109 12
Width: 194
VWidth: 0
Flags: W
LayerCount: 3
Fore
SplineSet
47 262 m 0
 47 290 69 312 97 312 c 0
 125 312 147 290 147 262 c 0
 147 234 125 212 97 212 c 0
 69 212 47 234 47 262 c 0
EndSplineSet
EndChar

StartChar: n
Encoding: 110 110 13
Width: 479
VWidth: 0
Flags: W
LayerCount: 3
Fore
SplineSet
143 363 m 0
 143 352 129 306 129 296 c 0
 129 284 144 298 149 302 c 0
 181 327 215 355 275 355 c 0
 367 355 388 286 388 230 c 2
 388 53 l 2
 388 7 438 36 438 11 c 0
 438 0 433 -2 423 -2 c 0
 416 -2 366 0 359 0 c 0
 333 0 306 -2 290 -2 c 0
 280 -2 275 1 275 12 c 0
 275 22 286 26 299 27 c 0
 324 29 327 46 327 74 c 2
 327 223 l 2
 327 286 285 316 239 316 c 0
 215 316 189 310 168 296 c 0
 153 286 132 275 132 253 c 2
 132 87 l 2
 132 48 133 37 141 32 c 0
 150 26 169 26 181 24 c 0
 188 23 193 18 193 11 c 0
 193 -1 180 -2 163 -2 c 0
 149 -2 122 0 103 0 c 0
 84 0 62 -2 47 -2 c 0
 36 -2 27 0 27 11 c 0
 27 21 35 21 46 23 c 0
 64 27 71 26 71 55 c 2
 71 268 l 2
 71 275 68 281 62 289 c 2
 48 305 l 2
 40 313 38 315 51 322 c 0
 80 338 105 355 125 370 c 0
 128 373 131 374 134 374 c 0
 139 374 143 370 143 363 c 0
EndSplineSet
EndChar

StartChar: o
Encoding: 111 111 14
Width: 410
VWidth: 0
Flags: W
LayerCount: 3
Fore
SplineSet
199 323 m 0
 163 323 89 285 89 172 c 0
 89 95 122 20 200 20 c 0
 237 20 303 51 303 178 c 0
 303 258 267 323 199 323 c 0
202 353 m 0
 301 353 367 290 367 173 c 0
 367 71 301 -9 196 -9 c 0
 84 -9 26 76 26 172 c 0
 26 285 109 353 202 353 c 0
EndSplineSet
EndChar

StartChar: p
Encoding: 112 112 15
Width: 194
VWidth: 0
Flags: W
LayerCount: 3
Fore
SplineSet
47 262 m 0
 47 290 69 312 97 312 c 0
 125 312 147 290 147 262 c 0
 147 234 125 212 97 212 c 0
 69 212 47 234 47 262 c 0
EndSplineSet
EndChar

StartChar: q
Encoding: 113 113 16
Width: 194
VWidth: 0
Flags: W
LayerCount: 3
Fore
SplineSet
47 262 m 0
 47 290 69 312 97 312 c 0
 125 312 147 290 147 262 c 0
 147 234 125 212 97 212 c 0
 69 212 47 234 47 262 c 0
EndSplineSet
EndChar

StartChar: r
Encoding: 114 114 17
Width: 304
VWidth: 0
Flags: W
LayerCount: 3
Fore
SplineSet
252 349 m 0
 268 349 292 341 292 314 c 0
 292 292 276 278 257 278 c 0
 230 278 222 291 191 291 c 0
 173 291 163 285 148 271 c 0
 133 257 130 239 130 214 c 2
 130 74 l 2
 130 30 152 31 188 28 c 0
 202 27 207 20 207 12 c 0
 207 6 204 -2 190 -2 c 0
 168 -2 133 0 107 0 c 0
 89 0 64 -2 52 -2 c 0
 40 -2 30 0 30 11 c 0
 30 20 36 25 49 31 c 0
 65 38 69 45 69 80 c 2
 69 270 l 2
 69 280 64 286 57 290 c 2
 44 298 l 2
 30 307 38 309 50 318 c 2
 122 368 l 2
 124 370 131 374 136 374 c 0
 139 374 142 372 142 366 c 0
 142 362 127 285 127 281 c 0
 127 278 128 277 130 277 c 0
 134 277 165 308 168 311 c 0
 196 335 222 349 252 349 c 0
EndSplineSet
EndChar

StartChar: s
Encoding: 115 115 18
Width: 311
VWidth: 0
Flags: W
LayerCount: 3
Fore
SplineSet
22 54 m 0x4c
 22 66 28 82 37 82 c 0x4c
 48 82 52 71 58 60 c 0
 74 32 85 19 127 19 c 0
 176 19 197 45 197 77 c 0
 197 158 49 156 49 262 c 0
 49 327 120 354 178 354 c 0x9c
 195 354 210 351 227 346 c 0
 244 341 250 338 250 323 c 2
 250 315 l 2
 250 298 249 277 237 277 c 0x2c
 233 277 229 279 225 286 c 2
 210 310 l 2
 202 323 186 328 170 328 c 0
 136 328 109 312 109 281 c 0
 109 205 254 190 254 98 c 0
 254 28 197 -9 117 -9 c 0x9c
 88 -9 64 -4 46 2 c 0
 29 8 22 6 22 54 c 0x4c
EndSplineSet
EndChar

StartChar: t
Encoding: 116 116 19
Width: 308
VWidth: 0
Flags: WO
HStem: -8 48<143.558 245.575> 307 37<133.186 274>
VStem: 66 61<56.6649 304.258>
LayerCount: 3
Fore
SplineSet
252 18 m 0
 230 2 190 -8 163 -8 c 0
 110 -8 66 30 66 89 c 2
 66 289 l 2
 66 297 66 304 53 304 c 0
 39 304 34 305 34 313 c 0
 34 318 38 323 43 329 c 2
 114 408 l 2
 117 412 123 416 127 416 c 0
 130 416 133 413 133 406 c 2
 133 356 l 2
 133 344 133 344 146 344 c 2
 265 344 l 2
 274 344 274 334 274 326 c 0
 274 318 274 307 265 307 c 2
 143 307 l 2
 130 307 127 306 127 295 c 2
 127 127 l 2
 127 62 155 40 192 40 c 0
 210 40 228 44 244 54 c 0
 250 57 260 63 266 63 c 0
 271 63 278 59 278 49 c 0
 278 37 264 27 252 18 c 0
EndSplineSet
EndChar

StartChar: u
Encoding: 117 117 20
Width: 194
VWidth: 0
Flags: W
HStem: 212 100<55.4375 138.562>
VStem: 47 100<220.438 303.562>
LayerCount: 3
Fore
SplineSet
47 262 m 0
 47 290 69 312 97 312 c 0
 125 312 147 290 147 262 c 0
 147 234 125 212 97 212 c 0
 69 212 47 234 47 262 c 0
EndSplineSet
EndChar

StartChar: v
Encoding: 118 118 21
Width: 194
VWidth: 0
Flags: W
HStem: 212 100<55.4375 138.562>
VStem: 47 100<220.438 303.562>
LayerCount: 3
Fore
SplineSet
47 262 m 0
 47 290 69 312 97 312 c 0
 125 312 147 290 147 262 c 0
 147 234 125 212 97 212 c 0
 69 212 47 234 47 262 c 0
EndSplineSet
EndChar

StartChar: w
Encoding: 119 119 22
Width: 194
VWidth: 0
Flags: W
HStem: 212 100<55.4375 138.562>
VStem: 47 100<220.438 303.562>
LayerCount: 3
Fore
SplineSet
47 262 m 0
 47 290 69 312 97 312 c 0
 125 312 147 290 147 262 c 0
 147 234 125 212 97 212 c 0
 69 212 47 234 47 262 c 0
EndSplineSet
EndChar

StartChar: x
Encoding: 120 120 23
Width: 194
VWidth: 0
Flags: W
HStem: 212 100<55.4375 138.562>
VStem: 47 100<220.438 303.562>
LayerCount: 3
Fore
SplineSet
47 262 m 0
 47 290 69 312 97 312 c 0
 125 312 147 290 147 262 c 0
 147 234 125 212 97 212 c 0
 69 212 47 234 47 262 c 0
EndSplineSet
EndChar

StartChar: y
Encoding: 121 121 24
Width: 194
VWidth: 0
Flags: W
HStem: 212 100<55.4375 138.562>
VStem: 47 100<220.438 303.562>
LayerCount: 3
Fore
SplineSet
47 262 m 0
 47 290 69 312 97 312 c 0
 125 312 147 290 147 262 c 0
 147 234 125 212 97 212 c 0
 69 212 47 234 47 262 c 0
EndSplineSet
EndChar

StartChar: z
Encoding: 122 122 25
Width: 194
VWidth: 0
Flags: W
HStem: 212 100<55.4375 138.562>
VStem: 47 100<220.438 303.562>
LayerCount: 3
Fore
SplineSet
47 262 m 0
 47 290 69 312 97 312 c 0
 125 312 147 290 147 262 c 0
 147 234 125 212 97 212 c 0
 69 212 47 234 47 262 c 0
EndSplineSet
EndChar

StartChar: zero
Encoding: 48 48 52
Width: 194
VWidth: 0
Flags: W
HStem: 212 100<55.4375 138.562>
VStem: 47 100<220.438 303.562>
LayerCount: 3
Fore
SplineSet
47 262 m 0
 47 290 69 312 97 312 c 0
 125 312 147 290 147 262 c 0
 147 234 125 212 97 212 c 0
 69 212 47 234 47 262 c 0
EndSplineSet
EndChar

StartChar: one
Encoding: 49 49 53
Width: 194
VWidth: 0
Flags: W
HStem: 212 100<55.4375 138.562>
VStem: 47 100<220.438 303.562>
LayerCount: 3
Fore
SplineSet
47 262 m 0
 47 290 69 312 97 312 c 0
 125 312 147 290 147 262 c 0
 147 234 125 212 97 212 c 0
 69 212 47 234 47 262 c 0
EndSplineSet
EndChar

StartChar: two
Encoding: 50 50 54
Width: 194
VWidth: 0
Flags: W
HStem: 212 100<55.4375 138.562>
VStem: 47 100<220.438 303.562>
LayerCount: 3
Fore
SplineSet
47 262 m 0
 47 290 69 312 97 312 c 0
 125 312 147 290 147 262 c 0
 147 234 125 212 97 212 c 0
 69 212 47 234 47 262 c 0
EndSplineSet
EndChar

StartChar: three
Encoding: 51 51 55
Width: 194
VWidth: 0
Flags: W
HStem: 212 100<55.4375 138.562>
VStem: 47 100<220.438 303.562>
LayerCount: 3
Fore
SplineSet
47 262 m 0
 47 290 69 312 97 312 c 0
 125 312 147 290 147 262 c 0
 147 234 125 212 97 212 c 0
 69 212 47 234 47 262 c 0
EndSplineSet
EndChar

StartChar: four
Encoding: 52 52 56
Width: 194
VWidth: 0
Flags: W
HStem: 212 100<55.4375 138.562>
VStem: 47 100<220.438 303.562>
LayerCount: 3
Fore
SplineSet
47 262 m 0
 47 290 69 312 97 312 c 0
 125 312 147 290 147 262 c 0
 147 234 125 212 97 212 c 0
 69 212 47 234 47 262 c 0
EndSplineSet
EndChar

StartChar: five
Encoding: 53 53 57
Width: 194
VWidth: 0
Flags: W
HStem: 212 100<55.4375 138.562>
VStem: 47 100<220.438 303.562>
LayerCount: 3
Fore
SplineSet
47 262 m 0
 47 290 69 312 97 312 c 0
 125 312 147 290 147 262 c 0
 147 234 125 212 97 212 c 0
 69 212 47 234 47 262 c 0
EndSplineSet
EndChar

StartChar: six
Encoding: 54 54 58
Width: 194
VWidth: 0
Flags: W
HStem: 212 100<55.4375 138.562>
VStem: 47 100<220.438 303.562>
LayerCount: 3
Fore
SplineSet
47 262 m 0
 47 290 69 312 97 312 c 0
 125 312 147 290 147 262 c 0
 147 234 125 212 97 212 c 0
 69 212 47 234 47 262 c 0
EndSplineSet
EndChar

StartChar: seven
Encoding: 55 55 59
Width: 194
VWidth: 0
Flags: W
HStem: 212 100<55.4375 138.562>
VStem: 47 100<220.438 303.562>
LayerCount: 3
Fore
SplineSet
47 262 m 0
 47 290 69 312 97 312 c 0
 125 312 147 290 147 262 c 0
 147 234 125 212 97 212 c 0
 69 212 47 234 47 262 c 0
EndSplineSet
EndChar

StartChar: eight
Encoding: 56 56 60
Width: 194
VWidth: 0
Flags: W
HStem: 212 100<55.4375 138.562>
VStem: 47 100<220.438 303.562>
LayerCount: 3
Fore
SplineSet
47 262 m 0
 47 290 69 312 97 312 c 0
 125 312 147 290 147 262 c 0
 147 234 125 212 97 212 c 0
 69 212 47 234 47 262 c 0
EndSplineSet
EndChar

StartChar: nine
Encoding: 57 57 61
Width: 194
VWidth: 0
Flags: W
HStem: 212 100<55.4375 138.562>
VStem: 47 100<220.438 303.562>
LayerCount: 3
Fore
SplineSet
47 262 m 0
 47 290 69 312 97 312 c 0
 125 312 147 290 147 262 c 0
 147 234 125 212 97 212 c 0
 69 212 47 234 47 262 c 0
EndSplineSet
EndChar

StartChar: .notdef
Encoding: 65536 -1 63
Width: 500
Flags: W
HStem: 0 50<100 400> 483 50<100 400>
VStem: 50 50<50 483> 400 50<50 483>
LayerCount: 3
Fore
SplineSet
50 0 m 1
 50 533 l 1
 450 533 l 1
 450 0 l 1
 50 0 l 1
100 50 m 1
 400 50 l 1
 400 483 l 1
 100 483 l 1
 100 50 l 1
EndSplineSet
EndChar
